# xmcd
# Copyright (C) 1995-1998 Ti Kan
#
# Track frame offsets:
#       150
#       29092
#       44544
#       61799
#       77803
#       88848
#       106060
#       120837
#       137244
#       172553
#
# Disc length: 3096 seconds
#
# Revision: 0
# Processed by: cddbd v1.5.2PL0 Copyright (c) Steve Scherf et al.
# Submitted via: CD-Import v1.0
#
DISCID=770c160a
DTITLE=Cornershop - Woman's Gotta Have It
DYEAR=1995
DGENRE=
TTITLE0=6 A.m. Jullandar Shere
TTITLE1=Hong Kong Book Of Kung Fu
TTITLE2=Roof Rack
TTITLE3=My Dancing Days Are Done
TTITLE4=Call All Destroyer
TTITLE5=Camp Orange
TTITLE6=7 Wog
TTITLE7=Jansimram King
TTITLE8=Looking For A Way In
TTITLE9=7:20 A.m. Jullandar Shere
EXTD=
EXTT0=
EXTT1=
EXTT2=
EXTT3=
EXTT4=
EXTT5=
EXTT6=
EXTT7=
EXTT8=
EXTT9=
PLAYORDER=
